:SAMPLES-PER-SECOND 30
:FRAME-RANGE 1-1770
:FULLY-SPECIFIED
:DEGREES
277
root  -38.4471 35.295 24.1161 -34.6719 -81.4277 37.7008
RightUpLeg  -9.87857 15.4343 -10.8779
RightLeg  74.5108 1.91137 6.81847
RightFoot  -1.59854 -0.945895 10.9388
RightToes  -1.33073e-015 0 -3.6325e-017
Spine  3.41433 0.577078 -6.63818
Spine1  5.34256 -0.29508 0.164537
HEad  23.1331 -8.09849 2.67557
LeftShoulder1  1.48091 -2.10965 -21.2177
LeftArm  29.1336 -10.198 -57.3615
LeftForeArm  19.5325 -23.5023 -4.03808
LeftHand  -0.0743819 4.66532 9.2645
RightShoulder  1.36833 1.48998 22.27
RightArm  4.90878 10.4537 58.0821
RightForeArm  40.626 18.6714 5.70127
RightHand  -0.114119 -4.85272 -23.0339
LeftUpLeg  -39.7148 3.93412 -6.99097
LeftLeg  39.1579 2.27125 2.37315
LeftFoot  -0.688001 -0.245604 2.67868
LeftToes  1.09107e-011 -1.16422e-010 2.98337e-011
278
root  -39.6529 35.3465 24.8553 -37.3584 -80.9845 40.1664
RightUpLeg  -15.3939 15.1904 -11.6723
RightLeg  81.0134 0.92717 5.29476
RightFoot  -5.02887 -0.568985 9.67376
RightToes  -1.33073e-015 0 -3.6325e-017
Spine  4.04857 0.801354 -6.04014
Spine1  5.05813 0.109419 -0.719859
HEad  24.2835 -1.7128 -0.0813966
LeftShoulder1  1.42712 -1.84365 -21.6086
LeftArm  16.3327 -11.6446 -58.5586
LeftForeArm  33.1472 -13.7386 -9.49237
LeftHand  -0.0016682 5.7049 7.66888
RightShoulder  1.38578 1.54321 22.3224
RightArm  -4.43366 10.1262 57.4226
RightForeArm  46.1716 15.8752 6.88898
RightHand  -0.052788 -5.16693 -24.1303
LeftUpLeg  -38.2236 3.87521 -8.55976
LeftLeg  41.4444 2.36771 2.64594
LeftFoot  -4.06582 -0.176442 3.1606
LeftToes  1.09107e-011 -1.16422e-010 2.98337e-011
279
root  -40.8137 35.6933 25.5483 -36.3158 -80.6202 38.8658
RightUpLeg  -20.6759 13.9777 -12.0336
RightLeg  82.9291 0.641027 4.07009
RightFoot  -6.76633 -0.376818 8.26461
RightToes  -1.33073e-015 0 -3.6325e-017
Spine  4.78609 0.632933 -5.74167
Spine1  4.72689 -0.0918809 -0.473631
HEad  24.5003 4.51648 -2.49012
LeftShoulder1  1.48094 -1.93445 -22.1906
LeftArm  1.69281 -11.2977 -58.3008
LeftForeArm  43.6374 -4.88642 -11.705
LeftHand  0.0276216 6.22874 7.2989
RightShoulder  1.41711 1.64384 22.3827
RightArm  -11.8692 9.41182 56.1642
RightForeArm  52.0254 12.7985 7.663
RightHand  -0.0117476 -5.36027 -25.0299
LeftUpLeg  -35.4377 4.03794 -9.59693
LeftLeg  41.1587 2.23167 2.50003
LeftFoot  -6.13914 -0.134909 3.783
LeftToes  1.09107e-011 -1.16422e-010 2.98337e-011
280
root  -41.9484 36.189 26.1867 -34.1818 -79.9657 36.6483
RightUpLeg  -24.9063 12.8949 -11.9327
RightLeg  80.441 0.595182 2.42205
RightFoot  -8.8886 -0.210293 6.98937
RightToes  -1.33073e-015 0 -3.6325e-017
Spine  5.35586 0.266579 -6.04485
Spine1  4.282 -0.52235 0.0171189
HEad  24.2071 9.32898 -4.01047
LeftShoulder1  1.55254 -2.15447 -22.3748
LeftArm  -2.15227 -9.65326 -58.2556
LeftForeArm  40.7839 0.105212 -11.6023
LeftHand  0.0389486 6.32312 7.92203
RightShoulder  1.37628 1.40253 23.0115
RightArm  -15.3117 8.01649 54.1795
RightForeArm  56.4795 10.6454 7.95948
RightHand  0.000921807 -5.42156 -24.5284
LeftUpLeg  -31.9949 3.17171 -10.4024
LeftLeg  39.1795 2.63749 2.70926
LeftFoot  -7.25804 -0.102119 4.08957
LeftToes  1.09107e-011 -1.16422e-010 2.98337e-011
281
root  -43.0694 36.7544 26.7746 -29.4314 -79.4195 32.1112
RightUpLeg  -27.8073 12.3002 -11.1519
RightLeg  73.6637 0.338359 0.29523
RightFoot  -12.1103 -0.0316483 7.54125
RightToes  -1.33073e-015 0 -3.6325e-017
Spine  5.33812 -0.17061 -6.03953
Spine1  3.86559 -0.911488 0.439803
HEad  23.5853 12.876 -4.55612
LeftShoulder1  1.58984 -2.29813 -22.3083
LeftArm  -2.24981 -7.36194 -58.0594
LeftForeArm  36.1717 2.53949 -11.9112
LeftHand  0.0132428 5.93572 7.77588
RightShoulder  1.28859 0.995527 23.7633
RightArm  -16.7522 5.93413 51.8954
RightForeArm  59.6631 9.43374 8.05535
RightHand  0.02113 -5.52698 -23.545
LeftUpLeg  -28.4874 1.93676 -10.5702
LeftLeg  36.2692 3.06602 2.81126
LeftFoot  -7.87652 -0.0785638 4.16428
LeftToes  1.09107e-011 -1.16422e-010 2.98337e-011
